<?xml version="1.0" standalone="no"?>
<!DOCTYPE svg PUBLIC "-//W3C//DTD SVG 20010904//EN"
 "http://www.w3.org/TR/2001/REC-SVG-20010904/DTD/svg10.dtd">
<svg version="1.0" xmlns="http://www.w3.org/2000/svg"
 width="450.000000pt" height="450.000000pt" viewBox="0 0 450.000000 450.000000"
 preserveAspectRatio="xMidYMid meet">

<g transform="translate(0.000000,450.000000) scale(0.100000,-0.100000)"
fill="#000000" stroke="none">
<path d="M3185 3064 c-227 -66 -525 -201 -730 -330 -357 -224 -668 -542 -814
-833 -18 -35 -36 -60 -40 -55 -4 5 -30 40 -56 77 -88 126 -211 236 -288 258
-36 10 -88 -9 -111 -42 -9 -13 -16 -41 -16 -61 0 -33 22 -72 148 -261 82 -122
170 -257 197 -301 56 -90 90 -116 156 -116 63 0 91 24 141 124 315 629 812
1148 1363 1425 44 22 115 56 158 75 60 27 77 39 77 55 0 30 -42 27 -185 -15z"/>
</g>
</svg>
