<svg version="1.2" xmlns="http://www.w3.org/2000/svg" viewBox="0 0 772 245" width="772" height="245">
	<title>logo-svg</title>
	<style>
		.s0 { fill: #ffffff } 
	</style>
	<path id="Layer" fill-rule="evenodd" class="s0" d="m334.7 23.3h24.2v131.1h-24.2v-11q-10.6 13.6-30.3 13.6-18.9 0-32.3-14.3-13.4-14.4-13.4-35.1 0-20.8 13.4-35.1 13.4-14.4 32.3-14.4 19.7 0 30.3 13.7zm-44.4 103.3q7.4 7.3 18.6 7.4 11.2 0 18.5-7.4 7.3-7.4 7.3-19 0-11.6-7.3-19-7.3-7.4-18.5-7.4-11.2 0-18.6 7.4-7.4 7.3-7.4 19 0 11.6 7.4 19z"/>
	<path id="Layer" fill-rule="evenodd" class="s0" d="m464.5 142.7q-14.4 14.3-35.2 14.3-20.8 0-35.1-14.3-14.3-14.3-14.3-35.1 0-20.8 14.3-35.1 14.3-14.4 35.1-14.4 20.8 0 35.2 14.4 14.4 14.3 14.4 35.1 0 20.7-14.4 35.1zm-53.3-16.6q1.8 1.8 3.9 3.2 2 1.4 4.4 2.3 2.3 1 4.8 1.4 2.5 0.5 5 0.4 2.5 0.1 5-0.4 2.5-0.4 4.8-1.4 2.4-0.9 4.5-2.3 2.1-1.4 3.8-3.2 7.3-7.3 7.3-18.5 0-11.3-7.3-18.6-1.7-1.8-3.8-3.2-2.1-1.4-4.5-2.3-2.3-1-4.8-1.4-2.5-0.5-5-0.4-2.5-0.1-5 0.4-2.5 0.4-4.8 1.4-2.3 0.9-4.4 2.3-2.1 1.4-3.9 3.2-7.2 7.3-7.2 18.5 0 11.3 7.2 18.6z"/>
	<path id="Layer" fill-rule="evenodd" class="s0" d="m554.1 58.1q19 0 32.3 14.4 13.4 14.3 13.4 35.1 0 20.7-13.4 35.1-13.3 14.3-32.3 14.3-19.6 0-30.3-13.7v11h-24.1v-131h24.1v48.5q10.7-13.7 30.3-13.7zm-23 68.5q7.3 7.4 18.6 7.4 11.2 0 18.6-7.4 7.4-7.4 7.4-19 0-11.6-7.4-19-7.4-7.4-18.6-7.4-11.3 0-18.6 7.4-7.2 7.4-7.3 19 0 11.6 7.3 19z"/>
	<path id="Layer" class="s0" d="m632.6 49.5c-1.9 0-3.9-0.4-5.6-1.2-1.8-0.7-3.4-1.8-4.8-3.2-1.4-1.3-2.5-2.9-3.2-4.7-0.8-1.8-1.2-3.7-1.2-5.7q0-1.4 0.3-2.9 0.3-1.4 0.8-2.7 0.6-1.4 1.4-2.6 0.8-1.2 1.9-2.2 1-1.1 2.2-2 1.2-0.8 2.5-1.4 1.4-0.6 2.8-0.8 1.4-0.3 2.9-0.3 1.5 0 2.9 0.2 1.5 0.3 2.9 0.9 1.3 0.6 2.5 1.4 1.3 0.9 2.3 2 1 1 1.8 2.2 0.9 1.2 1.4 2.6 0.6 1.3 0.9 2.7 0.3 1.5 0.3 2.9 0 1.5-0.3 2.9-0.3 1.5-0.9 2.8-0.5 1.3-1.3 2.5-0.9 1.2-1.9 2.2-1.1 1.1-2.3 1.9-1.2 0.9-2.6 1.4-1.3 0.6-2.8 0.9-1.4 0.3-2.9 0.2zm-12 104.9v-93.6h24.1v93.6z"/>
	<path id="Layer" class="s0" d="m722.6 58.1q15.4 0 25.4 10.3 10 10.3 10 28.5v57.5h-24.1v-54.5q0-9.4-5.1-14.3-5-5-13.5-5-9.3 0-15 5.8-5.6 5.8-5.6 17.4v50.5h-24.1v-93.6h24.1v10.5q8.8-13 27.9-13.1z"/>
	<path id="Layer" class="s0" d="m291.6 196.2h3.4l-10.5 26.7q-0.3 0.8-0.7 1.6-0.4 0.8-0.9 1.5-0.5 0.7-1.1 1.4-0.6 0.6-1.3 1.2-0.6 0.5-1.2 0.9-0.7 0.3-1.5 0.6-0.7 0.2-1.5 0.3-0.8 0.1-1.6 0v-3q4.4 0.5 6.7-5l0.6-1.6-10.9-24.5h3.4l9.2 20.2z"/>
	<path id="Layer" fill-rule="evenodd" class="s0" d="m319.4 217.5c-1.2 1.2-2.6 2.1-4.2 2.8-1.5 0.6-3.2 0.9-4.9 0.9-1.7 0-3.3-0.3-4.9-0.9-1.6-0.7-3-1.6-4.2-2.8-1.2-1.2-2.1-2.6-2.8-4.2-0.6-1.5-0.9-3.2-0.9-4.9 0-1.7 0.3-3.3 0.9-4.9 0.7-1.6 1.6-3 2.8-4.2 1.2-1.2 2.6-2.1 4.2-2.7 1.6-0.7 3.2-1 4.9-1 1.7 0 3.4 0.3 4.9 1 1.6 0.6 3 1.5 4.2 2.7 1.2 1.2 2.2 2.6 2.8 4.2 0.6 1.6 1 3.2 1 4.9 0 1.7-0.4 3.4-1 4.9-0.6 1.6-1.6 3-2.8 4.2zm-16-2.2c0.9 0.9 2 1.6 3.2 2.1 1.1 0.5 2.4 0.7 3.7 0.7 1.2 0 2.5-0.2 3.7-0.7 1.1-0.5 2.2-1.2 3.1-2.1 0.9-0.9 1.6-2 2.1-3.2 0.5-1.1 0.7-2.4 0.7-3.7 0-1.2-0.2-2.5-0.7-3.7-0.5-1.2-1.2-2.2-2.1-3.1-1.3-1.4-3.1-2.3-4.9-2.7-1.9-0.4-3.9-0.2-5.6 0.6-1.8 0.7-3.3 1.9-4.4 3.5-1 1.6-1.6 3.5-1.6 5.4q0 1 0.2 1.9 0.2 1 0.5 1.9 0.4 0.8 0.9 1.6 0.6 0.8 1.3 1.5z"/>
	<path id="Layer" class="s0" d="m346.7 196.2h3.3v24.5h-3.2v-3.9q-0.7 1.1-1.5 2-0.9 0.8-2 1.4-1.1 0.6-2.3 0.8-1.2 0.3-2.4 0.2-1 0.1-2-0.1-0.9-0.1-1.8-0.5-0.9-0.3-1.7-0.9-0.9-0.5-1.5-1.2-0.7-0.7-1.2-1.6-0.5-0.8-0.8-1.8-0.4-0.9-0.5-1.9-0.2-1-0.1-2v-15h3.2v15q0 0.7 0.1 1.4 0.1 0.7 0.3 1.3 0.2 0.7 0.6 1.3 0.3 0.6 0.8 1.1 0.4 0.5 1 0.8 0.6 0.4 1.2 0.6 0.7 0.3 1.3 0.4 0.7 0.1 1.4 0 0.8 0 1.5-0.1 0.8-0.1 1.6-0.4 0.7-0.3 1.4-0.7 0.6-0.5 1.2-1 2.2-2.2 2.2-6.9z"/>
	<path id="Layer" class="s0" d="m361 200.3q2.3-4.5 7.7-4.5v3.1q-0.7 0-1.5 0.1-0.7 0.2-1.4 0.4-0.7 0.3-1.4 0.7-0.6 0.3-1.2 0.8-2.2 2-2.2 6.2v13.6h-3.2v-24.5h3.2z"/>
	<path id="Layer" fill-rule="evenodd" class="s0" d="m408.3 186.4h3.3v34.2h-3.3v-4.7q-0.7 1.2-1.8 2.3-1.1 1-2.4 1.7-1.3 0.7-2.7 1.1-1.5 0.3-2.9 0.2-1.3 0.1-2.5-0.2-1.2-0.2-2.4-0.7-1.1-0.5-2.2-1.2-1-0.7-1.9-1.6c-1.1-1.2-2.1-2.6-2.7-4.2-0.6-1.5-1-3.2-1-4.9 0-1.7 0.4-3.3 1-4.9 0.6-1.5 1.6-3 2.7-4.2q0.9-0.9 1.9-1.6 1.1-0.7 2.2-1.1 1.2-0.5 2.4-0.8 1.2-0.2 2.4-0.2 1.5 0 3 0.3 1.4 0.3 2.7 1 1.3 0.8 2.4 1.8 1.1 1 1.8 2.3zm-16.4 28.9c0.9 0.9 1.9 1.6 3.1 2.1 1.2 0.4 2.4 0.7 3.7 0.7 1.3 0 2.5-0.3 3.7-0.7 1.2-0.5 2.2-1.2 3.1-2.1 0.9-0.9 1.6-2 2.1-3.2 0.5-1.2 0.7-2.4 0.7-3.7 0-1.3-0.2-2.5-0.7-3.7-0.5-1.2-1.2-2.3-2.1-3.2-1.3-1.3-3-2.3-4.9-2.6-1.9-0.4-3.8-0.2-5.6 0.5-1.8 0.8-3.3 2-4.3 3.6-1.1 1.6-1.7 3.5-1.6 5.4q-0.1 1 0.1 1.9 0.2 0.9 0.5 1.8 0.4 0.9 0.9 1.7 0.6 0.8 1.3 1.5z"/>
	<path id="Layer" fill-rule="evenodd" class="s0" d="m440.4 196.2h3.2v24.5h-3.2v-4.8q-0.8 1.2-1.8 2.3-1.1 1-2.4 1.7-1.3 0.7-2.8 1.1-1.4 0.3-2.9 0.2-1.2 0.1-2.5-0.2-1.2-0.2-2.3-0.7-1.2-0.5-2.2-1.2-1-0.7-1.9-1.6c-1.2-1.2-2.1-2.6-2.8-4.2-0.6-1.5-0.9-3.2-0.9-4.9 0-1.7 0.3-3.3 0.9-4.9 0.7-1.5 1.6-3 2.8-4.2q0.9-0.9 1.9-1.6 1-0.7 2.2-1.1 1.1-0.5 2.3-0.8 1.3-0.2 2.5-0.2 1.5 0 2.9 0.3 1.5 0.3 2.8 1 1.3 0.8 2.4 1.8 1 1 1.8 2.3zm-16.5 19.1c0.9 0.9 2 1.6 3.2 2.1 1.1 0.5 2.4 0.7 3.7 0.7 1.2 0 2.5-0.2 3.7-0.7 1.1-0.5 2.2-1.2 3.1-2.1 0.9-0.9 1.6-2 2.1-3.2 0.4-1.1 0.7-2.4 0.7-3.7 0-1.3-0.3-2.5-0.7-3.7-0.5-1.2-1.2-2.2-2.1-3.1-0.9-0.9-2-1.6-3.1-2.1-1.2-0.5-2.5-0.8-3.7-0.8-1.3 0-2.6 0.3-3.7 0.8-1.2 0.5-2.3 1.2-3.2 2.1-0.9 0.9-1.6 1.9-2 3.1-0.5 1.2-0.8 2.4-0.8 3.7 0 1.3 0.3 2.6 0.8 3.7 0.4 1.2 1.1 2.3 2 3.2z"/>
	<path id="Layer" class="s0" d="m464.4 199.3h-7v14.8q0 0.4 0 0.8 0 0.4 0.1 0.8 0.1 0.3 0.3 0.7 0.1 0.3 0.4 0.6 0.2 0.2 0.5 0.4 0.2 0.2 0.6 0.3 0.3 0.1 0.6 0.2 0.3 0 0.6 0c1 0 2.4 0 3.9-0.1v2.8q-5.1 0.8-7.7-0.7-2.5-1.5-2.5-5.8v-14.8h-5.2v-3.1h5.1v-5.9l3.3-1v6.9h7z"/>
	<path id="Layer" fill-rule="evenodd" class="s0" d="m490.3 196.2h3.2v24.5h-3.2v-4.8q-0.8 1.2-1.8 2.3-1.1 1-2.4 1.7-1.3 0.7-2.8 1.1-1.4 0.3-2.9 0.2-1.2 0.1-2.5-0.2-1.2-0.2-2.3-0.7-1.2-0.5-2.2-1.2-1-0.7-1.9-1.6c-1.2-1.2-2.1-2.6-2.7-4.2-0.7-1.5-1-3.2-1-4.9 0-1.7 0.3-3.3 1-4.9 0.6-1.5 1.5-3 2.7-4.2q0.9-0.9 1.9-1.6 1-0.7 2.2-1.1 1.1-0.5 2.3-0.8 1.3-0.2 2.5-0.2 1.5 0 3 0.3 1.4 0.3 2.7 1 1.3 0.8 2.4 1.8 1 1 1.8 2.3zm-16.5 19.1c0.9 0.9 2 1.6 3.2 2.1 1.1 0.5 2.4 0.7 3.7 0.7 1.2 0 2.5-0.2 3.7-0.7 1.1-0.5 2.2-1.2 3.1-2.1 0.9-0.9 1.6-2 2.1-3.2 0.5-1.1 0.7-2.4 0.7-3.7 0-1.3-0.2-2.5-0.7-3.7-0.5-1.2-1.2-2.2-2.1-3.2-1.3-1.3-3.1-2.3-5-2.6-1.8-0.4-3.8-0.2-5.6 0.5-1.7 0.7-3.3 2-4.3 3.6-1.1 1.6-1.6 3.5-1.6 5.4q0 1 0.2 1.9 0.1 1 0.5 1.8 0.4 0.9 0.9 1.7 0.5 0.8 1.2 1.5z"/>
	<path id="Layer" class="s0" d="m506.7 216.5l-2.9 11h-2.9l1.9-11z"/>
	<path id="Layer" class="s0" d="m544.9 196.2h3.4l-10.5 26.7q-0.3 0.8-0.7 1.6-0.4 0.8-0.9 1.5-0.5 0.7-1.1 1.4-0.6 0.6-1.3 1.2-0.6 0.5-1.3 0.9-0.7 0.3-1.4 0.6-0.8 0.2-1.6 0.3-0.7 0.1-1.5 0v-3q4.3 0.5 6.6-5l0.7-1.6-11-24.5h3.5l9.1 20.2z"/>
	<path id="Layer" fill-rule="evenodd" class="s0" d="m572.7 217.5c-1.2 1.2-2.6 2.1-4.2 2.8-1.6 0.6-3.2 0.9-4.9 0.9-1.7 0-3.4-0.3-4.9-0.9-1.6-0.7-3-1.6-4.2-2.8-1.2-1.2-2.2-2.6-2.8-4.2-0.6-1.5-1-3.2-1-4.9 0-1.7 0.4-3.3 1-4.9 0.6-1.6 1.6-3 2.8-4.2 1.2-1.2 2.6-2.1 4.2-2.7 1.5-0.7 3.2-1 4.9-1 1.7 0 3.3 0.3 4.9 1 1.6 0.6 3 1.5 4.2 2.7 1.2 1.2 2.1 2.6 2.8 4.2 0.6 1.6 0.9 3.2 0.9 4.9 0 1.7-0.3 3.4-0.9 4.9-0.7 1.6-1.6 3-2.8 4.2zm-16-2.2c0.9 0.9 2 1.6 3.1 2.1 1.2 0.5 2.5 0.7 3.7 0.7 1.3 0 2.6-0.2 3.7-0.7 1.2-0.5 2.3-1.2 3.2-2.1 0.9-0.9 1.6-2 2-3.2 0.5-1.1 0.8-2.4 0.8-3.7 0-1.2-0.3-2.5-0.8-3.7-0.4-1.2-1.1-2.2-2-3.1-1.4-1.4-3.1-2.3-5-2.7-1.9-0.4-3.8-0.2-5.6 0.6-1.7 0.7-3.2 1.9-4.3 3.5-1.1 1.6-1.6 3.5-1.6 5.4q0 1 0.2 1.9 0.1 1 0.5 1.9 0.4 0.8 0.9 1.6 0.5 0.8 1.2 1.5z"/>
	<path id="Layer" class="s0" d="m600 196.2h3.2v24.5h-3.2v-3.9q-0.6 1.1-1.5 2-0.9 0.8-2 1.4-1.1 0.6-2.3 0.8-1.2 0.3-2.4 0.2-1 0.1-1.9-0.1-1-0.1-1.9-0.5-0.9-0.3-1.7-0.9-0.8-0.5-1.5-1.2-0.7-0.7-1.2-1.6-0.5-0.8-0.8-1.8-0.3-0.9-0.5-1.9-0.1-1-0.1-2v-15h3.3v15q-0.1 0.7 0 1.4 0.1 0.7 0.3 1.3 0.2 0.7 0.6 1.3 0.3 0.6 0.8 1.1 0.5 0.5 1 0.8 0.6 0.4 1.3 0.6 0.6 0.3 1.3 0.4 0.6 0.1 1.3 0 0.8 0 1.6-0.1 0.8-0.1 1.5-0.4 0.7-0.3 1.4-0.7 0.7-0.5 1.2-1 2.2-2.2 2.2-6.9z"/>
	<path id="Layer" class="s0" d="m614.3 200.3q2.2-4.5 7.7-4.5v3.1q-0.8 0-1.5 0.1-0.8 0.2-1.5 0.4-0.7 0.3-1.3 0.7-0.7 0.3-1.2 0.8-2.2 2-2.2 6.2v13.6h-3.3v-24.5h3.2z"/>
	<path id="Layer" class="s0" d="m658.2 196.2h3.4l-10 24.5h-3.9l-10-24.5h3.4l8.5 21z"/>
	<path id="Layer" fill-rule="evenodd" class="s0" d="m686.5 196.2h3.2v24.5h-3.2v-4.8q-0.7 1.2-1.8 2.3-1.1 1-2.4 1.7-1.3 0.7-2.7 1.1-1.5 0.3-3 0.2-1.2 0.1-2.4-0.2-1.3-0.2-2.4-0.7-1.2-0.5-2.2-1.2-1-0.7-1.9-1.6c-1.2-1.2-2.1-2.6-2.7-4.2-0.7-1.5-1-3.2-1-4.9 0-1.7 0.3-3.3 1-4.9 0.6-1.5 1.5-3 2.7-4.2q0.9-0.9 1.9-1.6 1-0.7 2.2-1.1 1.1-0.5 2.4-0.8 1.2-0.2 2.4-0.2 1.5 0 3 0.3 1.4 0.3 2.7 1.1 1.3 0.7 2.4 1.7 1.1 1 1.8 2.3zm-16.5 19.1c0.9 0.9 2 1.6 3.1 2.1 1.2 0.5 2.5 0.7 3.7 0.7 1.3 0 2.6-0.2 3.7-0.7 1.2-0.5 2.3-1.2 3.2-2.1 0.9-0.9 1.6-2 2.1-3.2 0.4-1.1 0.7-2.4 0.7-3.7 0-1.3-0.3-2.5-0.7-3.7-0.5-1.2-1.2-2.2-2.1-3.1-1.4-1.4-3.1-2.3-5-2.7-1.8-0.4-3.8-0.2-5.6 0.5-1.7 0.8-3.2 2-4.3 3.6-1 1.6-1.6 3.5-1.6 5.4q0 1 0.2 1.9 0.1 1 0.5 1.8 0.4 0.9 0.9 1.7 0.5 0.8 1.2 1.5z"/>
	<path id="Layer" class="s0" d="m697.6 220.6v-35.6h3.2v35.7z"/>
	<path id="Layer" class="s0" d="m725.8 196.2h3.2v24.5h-3.2v-3.9q-0.7 1.1-1.5 1.9-0.9 0.9-2 1.5-1.1 0.6-2.3 0.8-1.2 0.3-2.4 0.2-1 0.1-2-0.1-0.9-0.1-1.8-0.5-0.9-0.3-1.7-0.9-0.9-0.5-1.5-1.2-0.7-0.7-1.2-1.6-0.5-0.8-0.8-1.8-0.4-0.9-0.5-1.9-0.2-1-0.1-2v-15h3.2v15q0 0.7 0.1 1.4 0.1 0.7 0.3 1.3 0.2 0.7 0.6 1.3 0.3 0.6 0.8 1.1 0.5 0.5 1.1 0.8 0.5 0.4 1.2 0.6 0.6 0.3 1.3 0.4 0.6 0.1 1.3 0 0.8 0 1.6-0.1 0.8-0.1 1.5-0.4 0.8-0.3 1.4-0.7 0.7-0.5 1.2-1 2.2-2.2 2.2-6.9z"/>
	<path id="Layer" fill-rule="evenodd" class="s0" d="m748.2 195.6q1.2 0 2.4 0.2 1.2 0.2 2.4 0.7 1.1 0.5 2.1 1.3 1 0.7 1.8 1.7 0.9 0.9 1.5 2 0.6 1 1.1 2.2 0.4 1.1 0.6 2.4 0.2 1.2 0.2 2.4 0 0.2 0 0.4 0 0.2-0.1 0.4 0 0.2 0 0.4 0 0.2 0 0.3h-21.5q0.1 0.9 0.4 1.7 0.2 0.8 0.6 1.6 0.4 0.8 1 1.4 0.5 0.7 1.2 1.2 0.7 0.6 1.5 1 0.7 0.4 1.6 0.7 0.8 0.3 1.7 0.4 0.9 0.1 1.8 0.1 0.6 0 1.2 0 0.6-0.1 1.2-0.3 0.6-0.1 1.2-0.3 0.6-0.2 1.2-0.5 0.4-0.3 0.9-0.6 0.4-0.3 0.8-0.7 0.4-0.4 0.7-0.8 0.4-0.5 0.6-0.9l2.9 1.6q-0.4 0.7-0.9 1.3-0.5 0.5-1.1 1.1-0.5 0.5-1.1 0.9-0.7 0.5-1.3 0.8-0.8 0.4-1.5 0.7-0.8 0.3-1.6 0.5-0.8 0.2-1.7 0.3-0.8 0.1-1.6 0.1-1.3 0-2.6-0.2-1.3-0.2-2.5-0.7-1.2-0.5-2.3-1.2-1.1-0.7-2-1.6-0.9-0.9-1.6-1.9-0.7-1.1-1.1-2.3-0.5-1.2-0.7-2.4-0.2-1.3-0.2-2.6 0-1.2 0.2-2.5 0.2-1.2 0.7-2.4 0.4-1.2 1.1-2.2 0.7-1.1 1.6-2 0.9-0.9 1.9-1.6 1.1-0.7 2.3-1.2 1.2-0.5 2.4-0.7 1.3-0.2 2.6-0.2zm0 3.2q-1.8-0.1-3.4 0.5-1.7 0.5-3 1.7-1.3 1.1-2.1 2.6-0.8 1.6-1 3.3h18.3q-0.1-0.8-0.3-1.7-0.2-0.8-0.6-1.6-0.4-0.7-0.9-1.4-0.6-0.7-1.2-1.3-0.6-0.5-1.3-0.9-0.7-0.4-1.4-0.7-0.8-0.3-1.6-0.4-0.7-0.2-1.5-0.1z"/>
	<path id="Layer" class="s0" d="m187.7 71.3c-13.2 0-24.6-9.3-27.1-22.2-2.6-13 4.4-25.9 16.5-31 12.2-5 26.3-0.7 33.6 10.2 7.3 11 5.9 25.6-3.5 35q-1.9 1.9-4.1 3.4-2.3 1.5-4.8 2.5-2.5 1.1-5.2 1.6-2.7 0.5-5.4 0.5z"/>
	<path id="Layer" class="s0" d="m39.4 219.6c-5.5 0-10.8-1.6-15.4-4.6-4.5-3.1-8.1-7.4-10.2-12.4-2.1-5.1-2.6-10.7-1.6-16 1.1-5.4 3.8-10.3 7.6-14.2q0.5-0.4 0.9-0.9 0.5-0.4 1-0.8 0.5-0.4 1-0.7 0.5-0.4 1-0.8c0.5-0.3 0.9-0.6 1.4-0.8q1.5-0.9 3-1.6c0.5-0.2 1-0.4 1.6-0.7q0.4-0.1 0.8-0.3 0.4-0.1 0.9-0.2 0.4-0.1 0.8-0.3 0.4-0.1 0.9-0.2l0.7-0.2 0.4-0.1 6.1-0.4c0.8 0 1.7 0.1 2.6 0.2l0.3 0.1q0.1 0 0.2 0 0.1 0 0.2 0 0.1 0 0.2 0 0.1 0 0.2 0h0.2l0.3 0.1h0.3 1.3c5.4-0.1 10.6-1.2 15.6-3.3 4.9-2.1 9.4-5.2 13.1-9 3.7-3.9 6.7-8.4 8.7-13.4 2-5 2.9-10.3 2.9-15.6v-0.3l-0.1-0.4q0-0.1 0-0.2 0-0.1 0-0.2-0.1-0.1-0.1-0.2 0-0.1 0-0.3c0-0.3 0-0.7-0.1-1l-0.1-0.7c0-0.5-0.1-1-0.1-1.5l0.5-6.2c0-0.2 0-0.3 0.1-0.5l0.1-0.3q0.1-0.5 0.2-0.9 0.1-0.5 0.2-0.9 0.2-0.4 0.3-0.9 0.2-0.4 0.3-0.8 0.1-0.2 0.2-0.4 0-0.2 0.1-0.4 0.1-0.2 0.2-0.4 0.1-0.2 0.2-0.4 0.2-0.4 0.4-0.8 0.1-0.4 0.3-0.8 0.2-0.4 0.5-0.7 0.2-0.4 0.4-0.8 0.4-0.7 0.8-1.3 0.4-0.5 0.7-1 0.4-0.5 0.8-1 0.4-0.5 0.8-1 0.4-0.5 0.9-0.9c5.2-5.2 12.2-8.1 19.6-8.1 7.3 0 14.3 2.9 19.5 8.1 5.2 5.2 8.1 12.2 8.1 19.6 0 7.3-2.9 14.3-8.1 19.5q-0.4 0.5-0.9 0.9-0.5 0.4-1 0.8-0.5 0.4-1 0.8-0.5 0.4-1 0.7c-0.5 0.3-0.9 0.6-1.3 0.8q-0.4 0.3-0.8 0.5-0.3 0.2-0.7 0.4-0.4 0.2-0.8 0.4-0.3 0.1-0.7 0.3-0.8 0.4-1.6 0.7-0.5 0.2-0.9 0.3-0.4 0.1-0.8 0.3-0.4 0.1-0.8 0.2-0.5 0.1-0.9 0.2l-0.7 0.2-0.4 0.1-6.2 0.5c-0.7 0-1.5-0.2-2.3-0.3h-0.6q-0.1 0-0.2-0.1-0.1 0-0.2 0-0.1 0-0.1 0-0.1 0-0.2 0h-0.3l-0.3-0.1h-0.2q-0.7 0-1.4 0c-5.3 0.1-10.6 1.2-15.6 3.4-4.9 2.1-9.3 5.1-13.1 9-3.7 3.8-6.7 8.4-8.6 13.3-2 5-3 10.3-2.9 15.7v0.3 0.3q0.1 0.5 0.1 0.9c0 0.3 0.1 0.7 0.1 1.1 0.1 0.3 0.1 0.6 0.1 1q0 0.1 0 0.3 0.1 0.1 0.1 0.3 0 0.2 0 0.3 0 0.2 0 0.3v0.2l-0.4 5.9c0 0.1-0.3 0.8-0.3 1q-0.1 0.4-0.2 0.9-0.1 0.4-0.3 0.8-0.1 0.5-0.2 0.9-0.2 0.4-0.3 0.8c-0.2 0.6-0.4 1.1-0.7 1.6-0.4 1-1 2-1.6 3.1-0.2 0.4-0.5 0.9-0.8 1.4q-0.4 0.5-0.8 1-0.3 0.5-0.7 0.9-0.4 0.5-0.8 1-0.5 0.5-0.9 0.9-1.9 1.9-4.2 3.4-2.2 1.6-4.7 2.6-2.6 1.1-5.2 1.6-2.7 0.5-5.4 0.5z"/>
	<path id="Layer" class="s0" d="m114.1 219.6c-5.9 0.1-11.7-1.8-16.5-5.2-4.8-3.5-8.4-8.5-10.1-14.1-1.8-5.7-1.7-11.8 0.3-17.4 2-5.6 5.7-10.4 10.6-13.7q0.6-0.4 1.3-0.8 0.4-0.2 0.8-0.4 0.3-0.2 0.7-0.4 0.4-0.2 0.8-0.4 0.4-0.2 0.7-0.4 0.8-0.3 1.6-0.7 0.4-0.1 0.9-0.3 0.4-0.1 0.8-0.2 0.4-0.1 0.8-0.3 0.4-0.1 0.9-0.2l1.1-0.3 6.2-0.4c0.8 0 1.6 0.1 2.4 0.2l0.4 0.1c0.4 0 0.6 0 0.9 0h0.3 0.2 0.2 1.4c5.4-0.1 10.6-1.2 15.5-3.3 4.9-2.1 9.4-5.2 13.1-9 3.7-3.8 6.7-8.3 8.7-13.3 2-4.9 3-10.2 2.9-15.6v-1.3l-0.1-0.1q0 0 0 0 0-0.1 0-0.1 0 0 0 0 0 0 0 0c0-0.4 0-0.7-0.1-1l-0.1-0.8c0-0.5-0.1-1-0.1-1.5l0.4-6c0-0.2 0.3-0.9 0.3-1.1q0.1-0.5 0.2-0.9 0.1-0.4 0.3-0.8 0.1-0.5 0.2-0.9 0.2-0.4 0.3-0.8c0.2-0.6 0.5-1.1 0.7-1.6q0.2-0.4 0.4-0.8 0.2-0.4 0.4-0.8 0.2-0.3 0.4-0.7 0.2-0.4 0.4-0.7l0.1-0.2q0.1-0.2 0.2-0.3 0-0.1 0.1-0.3 0.1-0.1 0.2-0.2 0.1-0.2 0.2-0.3 0.3-0.5 0.7-1 0.4-0.6 0.8-1.1 0.4-0.4 0.8-0.9 0.4-0.5 0.9-1c5.1-5.3 12.2-8.3 19.6-8.4 7.5-0.1 14.6 2.8 19.9 8.1 5.2 5.2 8.1 12.4 8.1 19.8-0.1 7.4-3.1 14.5-8.5 19.7q-0.4 0.4-0.9 0.8-0.5 0.4-1 0.8-0.5 0.4-1 0.8-0.5 0.4-1 0.7-0.5 0.3-0.9 0.6l-0.5 0.3q-0.4 0.2-0.7 0.4-0.4 0.2-0.7 0.4-0.4 0.2-0.8 0.4-0.3 0.2-0.7 0.3-0.8 0.4-1.6 0.7-0.5 0.2-0.9 0.3-0.4 0.2-0.8 0.3-0.4 0.1-0.9 0.2-0.4 0.1-0.8 0.2-0.4 0.1-0.7 0.2c-0.2 0.1-0.3 0.1-0.5 0.1l-6.1 0.5c-0.9 0-1.9-0.2-2.8-0.3-0.3 0-0.6 0-0.8-0.1h-0.3-0.5-1.4c-5.4 0-10.7 1.2-15.6 3.3-4.9 2.1-9.4 5.2-13.1 9-3.7 3.8-6.7 8.4-8.6 13.3-2 5-3 10.3-2.9 15.7v0.3 0.3c0.1 0.3 0.1 0.6 0.1 1 0.1 0.3 0 0.6 0.1 1 0.1 0.3 0.1 0.6 0.1 0.9q0 0.2 0 0.3 0.1 0.2 0.1 0.4 0 0.2 0 0.3 0 0.2 0 0.4l-0.4 6.1c0 0.1-0.3 1-0.3 1q-0.1 0.4-0.2 0.8-0.1 0.5-0.2 0.9-0.2 0.4-0.3 0.9-0.1 0.4-0.3 0.8-0.3 0.8-0.6 1.5l-0.1 0.2q-0.2 0.4-0.4 0.7-0.2 0.4-0.3 0.8-0.2 0.3-0.4 0.7-0.2 0.4-0.5 0.7-0.4 0.7-0.8 1.4-0.4 0.5-0.7 1-0.4 0.5-0.8 1-0.4 0.5-0.8 1-0.5 0.4-0.9 0.9-1.9 1.9-4.2 3.4-2.2 1.6-4.8 2.6-2.5 1-5.1 1.6-2.7 0.5-5.4 0.5z"/>
	<path id="Layer" class="s0" d="m39.4 145c-5.5 0-10.8-1.6-15.4-4.7-4.5-3-8.1-7.3-10.2-12.4-2.1-5-2.6-10.6-1.6-15.9 1.1-5.4 3.7-10.3 7.6-14.2q0.5-0.5 0.9-0.9 0.5-0.4 1-0.8 0.5-0.4 1-0.8 0.5-0.3 1-0.7c0.5-0.3 0.9-0.6 1.4-0.8q0.4-0.3 0.7-0.5 0.4-0.2 0.8-0.4 0.4-0.2 0.7-0.3 0.4-0.2 0.8-0.4 0.8-0.4 1.6-0.7 0.4-0.2 0.8-0.3 0.5-0.1 0.9-0.3 0.4-0.1 0.8-0.2 0.4-0.1 0.8-0.2l0.7-0.2 0.4-0.1 6.3-0.5c0.8 0 1.7 0.2 2.6 0.3h0.2c0.3 0 0.6 0.1 0.8 0.1h0.3 0.2 0.3 1.4c5.3-0.1 10.6-1.2 15.5-3.3 5-2.2 9.4-5.2 13.1-9.1 3.8-3.8 6.7-8.4 8.7-13.3 2-5 3-10.3 2.9-15.7v-0.3l-0.1-0.3q0-0.1 0-0.2 0-0.1 0-0.3 0-0.1-0.1-0.2 0-0.1 0-0.3 0-0.4 0-0.8l-0.1-0.9c-0.1-0.5-0.2-1-0.2-1.5l0.4-5.8v-0.2-0.1c0-0.1 0.3-0.9 0.3-0.9q0.1-0.4 0.2-0.9 0.1-0.4 0.3-0.8 0.1-0.5 0.2-0.9 0.2-0.4 0.3-0.9c0.2-0.5 0.4-1 0.7-1.6q0.2-0.3 0.4-0.7 0.1-0.4 0.3-0.8 0.2-0.4 0.5-0.7 0.2-0.4 0.4-0.8l0.1-0.1q0.3-0.6 0.7-1.2 0.4-0.5 0.7-1 0.4-0.5 0.8-1 0.4-0.5 0.8-1 0.4-0.4 0.9-0.9c5.2-5.2 12.2-8.1 19.6-8.1 7.3 0 14.3 3 19.5 8.1 5.2 5.2 8.1 12.3 8.1 19.6 0 7.3-2.9 14.4-8.1 19.6q-0.4 0.4-0.9 0.8-0.5 0.4-1 0.8-0.5 0.4-1 0.8-0.5 0.4-1 0.7c-0.4 0.3-0.8 0.5-1.2 0.8l-0.2 0.1q-0.3 0.2-0.7 0.4-0.4 0.2-0.7 0.4-0.4 0.2-0.8 0.4-0.4 0.2-0.8 0.4-0.8 0.3-1.6 0.6-0.4 0.2-0.8 0.3-0.4 0.2-0.8 0.3-0.5 0.1-0.9 0.2-0.4 0.1-0.8 0.2l-0.8 0.2c-0.1 0-0.3 0.1-0.4 0.2l-6.2 0.4c-0.7 0-1.6-0.2-2.4-0.3h-0.4-0.8-0.3-0.2-0.3-1.4c-5.3 0-10.6 1.2-15.5 3.3-4.9 2.1-9.4 5.2-13.1 9-3.8 3.9-6.7 8.4-8.7 13.4-2 4.9-2.9 10.3-2.9 15.6v0.2l0.1 0.3q0 0.1 0 0.2 0 0.2 0.1 0.3 0 0.1 0 0.2 0 0.2 0 0.3c0 0.3 0 0.6 0.1 1l0.1 0.9q0 0.2 0 0.4 0 0.1 0 0.3 0.1 0.2 0.1 0.3 0 0.2 0 0.4l-0.5 6c0 0.1 0 0.3-0.1 0.5l-0.1 0.5q-0.1 0.5-0.2 0.9-0.2 0.4-0.3 0.9-0.1 0.4-0.2 0.8-0.2 0.5-0.3 0.9c-0.2 0.5-0.5 1-0.7 1.6q-0.2 0.4-0.4 0.8-0.2 0.3-0.4 0.7-0.2 0.4-0.4 0.8-0.2 0.3-0.4 0.7-0.4 0.7-0.8 1.3-0.4 0.6-0.8 1.1-0.3 0.5-0.7 1-0.4 0.5-0.9 0.9-0.4 0.5-0.8 1-1.9 1.9-4.2 3.4-2.3 1.5-4.8 2.5-2.5 1.1-5.1 1.6-2.7 0.5-5.4 0.5z"/>
	<path id="Layer" fill-rule="evenodd" class="s0" d="m334.7 23.3h24.2v131.1h-24.2v-11q-10.6 13.6-30.3 13.6-18.9 0-32.3-14.3-13.4-14.4-13.4-35.1 0-20.8 13.4-35.1 13.4-14.4 32.3-14.4 19.7 0 30.3 13.7zm-44.4 103.3q7.4 7.3 18.6 7.4 11.2 0 18.5-7.4 7.3-7.4 7.3-19 0-11.6-7.3-19-7.3-7.4-18.5-7.4-11.2 0-18.6 7.4-7.4 7.3-7.4 19 0 11.6 7.4 19z"/>
	<path id="Layer" fill-rule="evenodd" class="s0" d="m464.5 142.7q-14.4 14.3-35.2 14.3-20.8 0-35.1-14.3-14.3-14.3-14.3-35.1 0-20.8 14.3-35.1 14.3-14.4 35.1-14.4 20.8 0 35.2 14.4 14.4 14.3 14.4 35.1 0 20.7-14.4 35.1zm-53.3-16.6q1.8 1.8 3.9 3.2 2 1.4 4.4 2.3 2.3 1 4.8 1.4 2.5 0.5 5 0.4 2.5 0.1 5-0.4 2.5-0.4 4.8-1.4 2.4-0.9 4.5-2.3 2.1-1.4 3.8-3.2 7.3-7.3 7.3-18.5 0-11.3-7.3-18.6-1.7-1.8-3.8-3.2-2.1-1.4-4.5-2.3-2.3-1-4.8-1.4-2.5-0.5-5-0.4-2.5-0.1-5 0.4-2.5 0.4-4.8 1.4-2.3 0.9-4.4 2.3-2.1 1.4-3.9 3.2-7.2 7.3-7.2 18.5 0 11.3 7.2 18.6z"/>
	<path id="Layer" fill-rule="evenodd" class="s0" d="m554.1 58.1q19 0 32.3 14.4 13.4 14.3 13.4 35.1 0 20.7-13.4 35.1-13.3 14.3-32.3 14.3-19.6 0-30.3-13.7v11h-24.1v-131h24.1v48.5q10.7-13.7 30.3-13.7zm-23 68.5q7.3 7.4 18.6 7.4 11.2 0 18.6-7.4 7.4-7.4 7.4-19 0-11.6-7.4-19-7.4-7.4-18.6-7.4-11.3 0-18.6 7.4-7.2 7.4-7.3 19 0 11.6 7.3 19z"/>
	<path id="Layer" class="s0" d="m632.6 49.5c-1.9 0-3.9-0.4-5.6-1.2-1.8-0.7-3.4-1.8-4.8-3.2-1.4-1.3-2.5-2.9-3.2-4.7-0.8-1.8-1.2-3.7-1.2-5.7q0-1.4 0.3-2.9 0.3-1.4 0.8-2.7 0.6-1.4 1.4-2.6 0.8-1.2 1.9-2.2 1-1.1 2.2-2 1.2-0.8 2.5-1.4 1.4-0.6 2.8-0.8 1.4-0.3 2.9-0.3 1.5 0 2.9 0.2 1.5 0.3 2.9 0.9 1.3 0.6 2.5 1.4 1.3 0.9 2.3 2 1 1 1.8 2.2 0.9 1.2 1.4 2.6 0.6 1.3 0.9 2.7 0.3 1.5 0.3 2.9 0 1.5-0.3 2.9-0.3 1.5-0.9 2.8-0.5 1.3-1.3 2.5-0.9 1.2-1.9 2.2-1.1 1.1-2.3 1.9-1.2 0.9-2.6 1.4-1.3 0.6-2.8 0.9-1.4 0.3-2.9 0.2zm-12 104.9v-93.6h24.1v93.6z"/>
	<path id="Layer" class="s0" d="m722.6 58.1q15.4 0 25.4 10.3 10 10.3 10 28.5v57.5h-24.1v-54.5q0-9.4-5.1-14.3-5-5-13.5-5-9.3 0-15 5.8-5.6 5.8-5.6 17.4v50.5h-24.1v-93.6h24.1v10.5q8.8-13 27.9-13.1z"/>
	<path id="Layer" class="s0" d="m291.6 196.2h3.4l-10.5 26.7q-0.3 0.8-0.7 1.6-0.4 0.8-0.9 1.5-0.5 0.7-1.1 1.4-0.6 0.6-1.3 1.2-0.6 0.5-1.2 0.9-0.7 0.3-1.5 0.6-0.7 0.2-1.5 0.3-0.8 0.1-1.6 0v-3q4.4 0.5 6.7-5l0.6-1.6-10.9-24.5h3.4l9.2 20.2z"/>
	<path id="Layer" fill-rule="evenodd" class="s0" d="m319.4 217.5c-1.2 1.2-2.6 2.1-4.2 2.8-1.5 0.6-3.2 0.9-4.9 0.9-1.7 0-3.3-0.3-4.9-0.9-1.6-0.7-3-1.6-4.2-2.8-1.2-1.2-2.1-2.6-2.8-4.2-0.6-1.5-0.9-3.2-0.9-4.9 0-1.7 0.3-3.3 0.9-4.9 0.7-1.6 1.6-3 2.8-4.2 1.2-1.2 2.6-2.1 4.2-2.7 1.6-0.7 3.2-1 4.9-1 1.7 0 3.4 0.3 4.9 1 1.6 0.6 3 1.5 4.2 2.7 1.2 1.2 2.2 2.6 2.8 4.2 0.6 1.6 1 3.2 1 4.9 0 1.7-0.4 3.4-1 4.9-0.6 1.6-1.6 3-2.8 4.2zm-16-2.2c0.9 0.9 2 1.6 3.2 2.1 1.1 0.5 2.4 0.7 3.7 0.7 1.2 0 2.5-0.2 3.7-0.7 1.1-0.5 2.2-1.2 3.1-2.1 0.9-0.9 1.6-2 2.1-3.2 0.5-1.1 0.7-2.4 0.7-3.7 0-1.2-0.2-2.5-0.7-3.7-0.5-1.2-1.2-2.2-2.1-3.1-1.3-1.4-3.1-2.3-4.9-2.7-1.9-0.4-3.9-0.2-5.6 0.6-1.8 0.7-3.3 1.9-4.4 3.5-1 1.6-1.6 3.5-1.6 5.4q0 1 0.2 1.9 0.2 1 0.5 1.9 0.4 0.8 0.9 1.6 0.6 0.8 1.3 1.5z"/>
	<path id="Layer" class="s0" d="m346.7 196.2h3.3v24.5h-3.2v-3.9q-0.7 1.1-1.5 2-0.9 0.8-2 1.4-1.1 0.6-2.3 0.8-1.2 0.3-2.4 0.2-1 0.1-2-0.1-0.9-0.1-1.8-0.5-0.9-0.3-1.7-0.9-0.9-0.5-1.5-1.2-0.7-0.7-1.2-1.6-0.5-0.8-0.8-1.8-0.4-0.9-0.5-1.9-0.2-1-0.1-2v-15h3.2v15q0 0.7 0.1 1.4 0.1 0.7 0.3 1.3 0.2 0.7 0.6 1.3 0.3 0.6 0.8 1.1 0.4 0.5 1 0.8 0.6 0.4 1.2 0.6 0.7 0.3 1.3 0.4 0.7 0.1 1.4 0 0.8 0 1.5-0.1 0.8-0.1 1.6-0.4 0.7-0.3 1.4-0.7 0.6-0.5 1.2-1 2.2-2.2 2.2-6.9z"/>
	<path id="Layer" class="s0" d="m361 200.3q2.3-4.5 7.7-4.5v3.1q-0.7 0-1.5 0.1-0.7 0.2-1.4 0.4-0.7 0.3-1.4 0.7-0.6 0.3-1.2 0.8-2.2 2-2.2 6.2v13.6h-3.2v-24.5h3.2z"/>
	<path id="Layer" fill-rule="evenodd" class="s0" d="m408.3 186.4h3.3v34.2h-3.3v-4.7q-0.7 1.2-1.8 2.3-1.1 1-2.4 1.7-1.3 0.7-2.7 1.1-1.5 0.3-2.9 0.2-1.3 0.1-2.5-0.2-1.2-0.2-2.4-0.7-1.1-0.5-2.2-1.2-1-0.7-1.9-1.6c-1.1-1.2-2.1-2.6-2.7-4.2-0.6-1.5-1-3.2-1-4.9 0-1.7 0.4-3.3 1-4.9 0.6-1.5 1.6-3 2.7-4.2q0.9-0.9 1.9-1.6 1.1-0.7 2.2-1.1 1.2-0.5 2.4-0.8 1.2-0.2 2.4-0.2 1.5 0 3 0.3 1.4 0.3 2.7 1 1.3 0.8 2.4 1.8 1.1 1 1.8 2.3zm-16.4 28.9c0.9 0.9 1.9 1.6 3.1 2.1 1.2 0.4 2.4 0.7 3.7 0.7 1.3 0 2.5-0.3 3.7-0.7 1.2-0.5 2.2-1.2 3.1-2.1 0.9-0.9 1.6-2 2.1-3.2 0.5-1.2 0.7-2.4 0.7-3.7 0-1.3-0.2-2.5-0.7-3.7-0.5-1.2-1.2-2.3-2.1-3.2-1.3-1.3-3-2.3-4.9-2.6-1.9-0.4-3.8-0.2-5.6 0.5-1.8 0.8-3.3 2-4.3 3.6-1.1 1.6-1.7 3.5-1.6 5.4q-0.1 1 0.1 1.9 0.2 0.9 0.5 1.8 0.4 0.9 0.9 1.7 0.6 0.8 1.3 1.5z"/>
	<path id="Layer" fill-rule="evenodd" class="s0" d="m440.4 196.2h3.2v24.5h-3.2v-4.8q-0.8 1.2-1.8 2.3-1.1 1-2.4 1.7-1.3 0.7-2.8 1.1-1.4 0.3-2.9 0.2-1.2 0.1-2.5-0.2-1.2-0.2-2.3-0.7-1.2-0.5-2.2-1.2-1-0.7-1.9-1.6c-1.2-1.2-2.1-2.6-2.8-4.2-0.6-1.5-0.9-3.2-0.9-4.9 0-1.7 0.3-3.3 0.9-4.9 0.7-1.5 1.6-3 2.8-4.2q0.9-0.9 1.9-1.6 1-0.7 2.2-1.1 1.1-0.5 2.3-0.8 1.3-0.2 2.5-0.2 1.5 0 2.9 0.3 1.5 0.3 2.8 1 1.3 0.8 2.4 1.8 1 1 1.8 2.3zm-16.5 19.1c0.9 0.9 2 1.6 3.2 2.1 1.1 0.5 2.4 0.7 3.7 0.7 1.2 0 2.5-0.2 3.7-0.7 1.1-0.5 2.2-1.2 3.1-2.1 0.9-0.9 1.6-2 2.1-3.2 0.4-1.1 0.7-2.4 0.7-3.7 0-1.3-0.3-2.5-0.7-3.7-0.5-1.2-1.2-2.2-2.1-3.1-0.9-0.9-2-1.6-3.1-2.1-1.2-0.5-2.5-0.8-3.7-0.8-1.3 0-2.6 0.3-3.7 0.8-1.2 0.5-2.3 1.2-3.2 2.1-0.9 0.9-1.6 1.9-2 3.1-0.5 1.2-0.8 2.4-0.8 3.7 0 1.3 0.3 2.6 0.8 3.7 0.4 1.2 1.1 2.3 2 3.2z"/>
	<path id="Layer" class="s0" d="m464.4 199.3h-7v14.8q0 0.4 0 0.8 0 0.4 0.1 0.8 0.1 0.3 0.3 0.7 0.1 0.3 0.4 0.6 0.2 0.2 0.5 0.4 0.2 0.2 0.6 0.3 0.3 0.1 0.6 0.2 0.3 0 0.6 0c1 0 2.4 0 3.9-0.1v2.8q-5.1 0.8-7.7-0.7-2.5-1.5-2.5-5.8v-14.8h-5.2v-3.1h5.1v-5.9l3.3-1v6.9h7z"/>
	<path id="Layer" fill-rule="evenodd" class="s0" d="m490.3 196.2h3.2v24.5h-3.2v-4.8q-0.8 1.2-1.8 2.3-1.1 1-2.4 1.7-1.3 0.7-2.8 1.1-1.4 0.3-2.9 0.2-1.2 0.1-2.5-0.2-1.2-0.2-2.3-0.7-1.2-0.5-2.2-1.2-1-0.7-1.9-1.6c-1.2-1.2-2.1-2.6-2.7-4.2-0.7-1.5-1-3.2-1-4.9 0-1.7 0.3-3.3 1-4.9 0.6-1.5 1.5-3 2.7-4.2q0.9-0.9 1.9-1.6 1-0.7 2.2-1.1 1.1-0.5 2.3-0.8 1.3-0.2 2.5-0.2 1.5 0 3 0.3 1.4 0.3 2.7 1 1.3 0.8 2.4 1.8 1 1 1.8 2.3zm-16.5 19.1c0.9 0.9 2 1.6 3.2 2.1 1.1 0.5 2.4 0.7 3.7 0.7 1.2 0 2.5-0.2 3.7-0.7 1.1-0.5 2.2-1.2 3.1-2.1 0.9-0.9 1.6-2 2.1-3.2 0.5-1.1 0.7-2.4 0.7-3.7 0-1.3-0.2-2.5-0.7-3.7-0.5-1.2-1.2-2.2-2.1-3.2-1.3-1.3-3.1-2.3-5-2.6-1.8-0.4-3.8-0.2-5.6 0.5-1.7 0.7-3.3 2-4.3 3.6-1.1 1.6-1.6 3.5-1.6 5.4q0 1 0.2 1.9 0.1 1 0.5 1.8 0.4 0.9 0.9 1.7 0.5 0.8 1.2 1.5z"/>
	<path id="Layer" class="s0" d="m506.7 216.5l-2.9 11h-2.9l1.9-11z"/>
	<path id="Layer" class="s0" d="m544.9 196.2h3.4l-10.5 26.7q-0.3 0.8-0.7 1.6-0.4 0.8-0.9 1.5-0.5 0.7-1.1 1.4-0.6 0.6-1.3 1.2-0.6 0.5-1.3 0.9-0.7 0.3-1.4 0.6-0.8 0.2-1.6 0.3-0.7 0.1-1.5 0v-3q4.3 0.5 6.6-5l0.7-1.6-11-24.5h3.5l9.1 20.2z"/>
	<path id="Layer" fill-rule="evenodd" class="s0" d="m572.7 217.5c-1.2 1.2-2.6 2.1-4.2 2.8-1.6 0.6-3.2 0.9-4.9 0.9-1.7 0-3.4-0.3-4.9-0.9-1.6-0.7-3-1.6-4.2-2.8-1.2-1.2-2.2-2.6-2.8-4.2-0.6-1.5-1-3.2-1-4.9 0-1.7 0.4-3.3 1-4.9 0.6-1.6 1.6-3 2.8-4.2 1.2-1.2 2.6-2.1 4.2-2.7 1.5-0.7 3.2-1 4.9-1 1.7 0 3.3 0.3 4.9 1 1.6 0.6 3 1.5 4.2 2.7 1.2 1.2 2.1 2.6 2.8 4.2 0.6 1.6 0.9 3.2 0.9 4.9 0 1.7-0.3 3.4-0.9 4.9-0.7 1.6-1.6 3-2.8 4.2zm-16-2.2c0.9 0.9 2 1.6 3.1 2.1 1.2 0.5 2.5 0.7 3.7 0.7 1.3 0 2.6-0.2 3.7-0.7 1.2-0.5 2.3-1.2 3.2-2.1 0.9-0.9 1.6-2 2-3.2 0.5-1.1 0.8-2.4 0.8-3.7 0-1.2-0.3-2.5-0.8-3.7-0.4-1.2-1.1-2.2-2-3.1-1.4-1.4-3.1-2.3-5-2.7-1.9-0.4-3.8-0.2-5.6 0.6-1.7 0.7-3.2 1.9-4.3 3.5-1.1 1.6-1.6 3.5-1.6 5.4q0 1 0.2 1.9 0.1 1 0.5 1.9 0.4 0.8 0.9 1.6 0.5 0.8 1.2 1.5z"/>
	<path id="Layer" class="s0" d="m600 196.2h3.2v24.5h-3.2v-3.9q-0.6 1.1-1.5 2-0.9 0.8-2 1.4-1.1 0.6-2.3 0.8-1.2 0.3-2.4 0.2-1 0.1-1.9-0.1-1-0.1-1.9-0.5-0.9-0.3-1.7-0.9-0.8-0.5-1.5-1.2-0.7-0.7-1.2-1.6-0.5-0.8-0.8-1.8-0.3-0.9-0.5-1.9-0.1-1-0.1-2v-15h3.3v15q-0.1 0.7 0 1.4 0.1 0.7 0.3 1.3 0.2 0.7 0.6 1.3 0.3 0.6 0.8 1.1 0.5 0.5 1 0.8 0.6 0.4 1.3 0.6 0.6 0.3 1.3 0.4 0.6 0.1 1.3 0 0.8 0 1.6-0.1 0.8-0.1 1.5-0.4 0.7-0.3 1.4-0.7 0.7-0.5 1.2-1 2.2-2.2 2.2-6.9z"/>
	<path id="Layer" class="s0" d="m614.3 200.3q2.2-4.5 7.7-4.5v3.1q-0.8 0-1.5 0.1-0.8 0.2-1.5 0.4-0.7 0.3-1.3 0.7-0.7 0.3-1.2 0.8-2.2 2-2.2 6.2v13.6h-3.3v-24.5h3.2z"/>
	<path id="Layer" class="s0" d="m658.2 196.2h3.4l-10 24.5h-3.9l-10-24.5h3.4l8.5 21z"/>
	<path id="Layer" fill-rule="evenodd" class="s0" d="m686.5 196.2h3.2v24.5h-3.2v-4.8q-0.7 1.2-1.8 2.3-1.1 1-2.4 1.7-1.3 0.7-2.7 1.1-1.5 0.3-3 0.2-1.2 0.1-2.4-0.2-1.3-0.2-2.4-0.7-1.2-0.5-2.2-1.2-1-0.7-1.9-1.6c-1.2-1.2-2.1-2.6-2.7-4.2-0.7-1.5-1-3.2-1-4.9 0-1.7 0.3-3.3 1-4.9 0.6-1.5 1.5-3 2.7-4.2q0.9-0.9 1.9-1.6 1-0.7 2.2-1.1 1.1-0.5 2.4-0.8 1.2-0.2 2.4-0.2 1.5 0 3 0.3 1.4 0.3 2.7 1.1 1.3 0.7 2.4 1.7 1.1 1 1.8 2.3zm-16.5 19.1c0.9 0.9 2 1.6 3.1 2.1 1.2 0.5 2.5 0.7 3.7 0.7 1.3 0 2.6-0.2 3.7-0.7 1.2-0.5 2.3-1.2 3.2-2.1 0.9-0.9 1.6-2 2.1-3.2 0.4-1.1 0.7-2.4 0.7-3.7 0-1.3-0.3-2.5-0.7-3.7-0.5-1.2-1.2-2.2-2.1-3.1-1.4-1.4-3.1-2.3-5-2.7-1.8-0.4-3.8-0.2-5.6 0.5-1.7 0.8-3.2 2-4.3 3.6-1 1.6-1.6 3.5-1.6 5.4q0 1 0.2 1.9 0.1 1 0.5 1.8 0.4 0.9 0.9 1.7 0.5 0.8 1.2 1.5z"/>
	<path id="Layer" class="s0" d="m697.6 220.6v-35.6h3.2v35.7z"/>
	<path id="Layer" class="s0" d="m725.8 196.2h3.2v24.5h-3.2v-3.9q-0.7 1.1-1.5 1.9-0.9 0.9-2 1.5-1.1 0.6-2.3 0.8-1.2 0.3-2.4 0.2-1 0.1-2-0.1-0.9-0.1-1.8-0.5-0.9-0.3-1.7-0.9-0.9-0.5-1.5-1.2-0.7-0.7-1.2-1.6-0.5-0.8-0.8-1.8-0.4-0.9-0.5-1.9-0.2-1-0.1-2v-15h3.2v15q0 0.7 0.1 1.4 0.1 0.7 0.3 1.3 0.2 0.7 0.6 1.3 0.3 0.6 0.8 1.1 0.5 0.5 1.1 0.8 0.5 0.4 1.2 0.6 0.6 0.3 1.3 0.4 0.6 0.1 1.3 0 0.8 0 1.6-0.1 0.8-0.1 1.5-0.4 0.8-0.3 1.4-0.7 0.7-0.5 1.2-1 2.2-2.2 2.2-6.9z"/>
	<path id="Layer" fill-rule="evenodd" class="s0" d="m748.2 195.6q1.2 0 2.4 0.2 1.2 0.2 2.4 0.7 1.1 0.5 2.1 1.3 1 0.7 1.8 1.7 0.9 0.9 1.5 2 0.6 1 1.1 2.2 0.4 1.1 0.6 2.4 0.2 1.2 0.2 2.4 0 0.2 0 0.4 0 0.2-0.1 0.4 0 0.2 0 0.4 0 0.2 0 0.3h-21.5q0.1 0.9 0.4 1.7 0.2 0.8 0.6 1.6 0.4 0.8 1 1.4 0.5 0.7 1.2 1.2 0.7 0.6 1.5 1 0.7 0.4 1.6 0.7 0.8 0.3 1.7 0.4 0.9 0.1 1.8 0.1 0.6 0 1.2 0 0.6-0.1 1.2-0.3 0.6-0.1 1.2-0.3 0.6-0.2 1.2-0.5 0.4-0.3 0.9-0.6 0.4-0.3 0.8-0.7 0.4-0.4 0.7-0.8 0.4-0.5 0.6-0.9l2.9 1.6q-0.4 0.7-0.9 1.3-0.5 0.5-1.1 1.1-0.5 0.5-1.1 0.9-0.7 0.5-1.3 0.8-0.8 0.4-1.5 0.7-0.8 0.3-1.6 0.5-0.8 0.2-1.7 0.3-0.8 0.1-1.6 0.1-1.3 0-2.6-0.2-1.3-0.2-2.5-0.7-1.2-0.5-2.3-1.2-1.1-0.7-2-1.6-0.9-0.9-1.6-1.9-0.7-1.1-1.1-2.3-0.5-1.2-0.7-2.4-0.2-1.3-0.2-2.6 0-1.2 0.2-2.5 0.2-1.2 0.7-2.4 0.4-1.2 1.1-2.2 0.7-1.1 1.6-2 0.9-0.9 1.9-1.6 1.1-0.7 2.3-1.2 1.2-0.5 2.4-0.7 1.3-0.2 2.6-0.2zm0 3.2q-1.8-0.1-3.4 0.5-1.7 0.5-3 1.7-1.3 1.1-2.1 2.6-0.8 1.6-1 3.3h18.3q-0.1-0.8-0.3-1.7-0.2-0.8-0.6-1.6-0.4-0.7-0.9-1.4-0.6-0.7-1.2-1.3-0.6-0.5-1.3-0.9-0.7-0.4-1.4-0.7-0.8-0.3-1.6-0.4-0.7-0.2-1.5-0.1z"/>
	<path id="Layer" class="s0" d="m187.7 71.3c-13.2 0-24.6-9.3-27.1-22.2-2.6-13 4.4-25.9 16.5-31 12.2-5 26.3-0.7 33.6 10.2 7.3 11 5.9 25.6-3.5 35q-1.9 1.9-4.1 3.4-2.3 1.5-4.8 2.5-2.5 1.1-5.2 1.6-2.7 0.5-5.4 0.5z"/>
	<path id="Layer" class="s0" d="m39.4 219.6c-5.5 0-10.8-1.6-15.4-4.6-4.5-3.1-8.1-7.4-10.2-12.4-2.1-5.1-2.6-10.7-1.6-16 1.1-5.4 3.8-10.3 7.6-14.2q0.5-0.4 0.9-0.9 0.5-0.4 1-0.8 0.5-0.4 1-0.7 0.5-0.4 1-0.8c0.5-0.3 0.9-0.6 1.4-0.8q1.5-0.9 3-1.6c0.5-0.2 1-0.4 1.6-0.7q0.4-0.1 0.8-0.3 0.4-0.1 0.9-0.2 0.4-0.1 0.8-0.3 0.4-0.1 0.9-0.2l0.7-0.2 0.4-0.1 6.1-0.4c0.8 0 1.7 0.1 2.6 0.2l0.3 0.1q0.1 0 0.2 0 0.1 0 0.2 0 0.1 0 0.2 0 0.1 0 0.2 0h0.2l0.3 0.1h0.3 1.3c5.4-0.1 10.6-1.2 15.6-3.3 4.9-2.1 9.4-5.2 13.1-9 3.7-3.9 6.7-8.4 8.7-13.4 2-5 2.9-10.3 2.9-15.6v-0.3l-0.1-0.4q0-0.1 0-0.2 0-0.1 0-0.2-0.1-0.1-0.1-0.2 0-0.1 0-0.3c0-0.3 0-0.7-0.1-1l-0.1-0.7c0-0.5-0.1-1-0.1-1.5l0.5-6.2c0-0.2 0-0.3 0.1-0.5l0.1-0.3q0.1-0.5 0.2-0.9 0.1-0.5 0.2-0.9 0.2-0.4 0.3-0.9 0.2-0.4 0.3-0.8 0.1-0.2 0.2-0.4 0-0.2 0.1-0.4 0.1-0.2 0.2-0.4 0.1-0.2 0.2-0.4 0.2-0.4 0.4-0.8 0.1-0.4 0.3-0.8 0.2-0.4 0.5-0.7 0.2-0.4 0.4-0.8 0.4-0.7 0.8-1.3 0.4-0.5 0.7-1 0.4-0.5 0.8-1 0.4-0.5 0.8-1 0.4-0.5 0.9-0.9c5.2-5.2 12.2-8.1 19.6-8.1 7.3 0 14.3 2.9 19.5 8.1 5.2 5.2 8.1 12.2 8.1 19.6 0 7.3-2.9 14.3-8.1 19.5q-0.4 0.5-0.9 0.9-0.5 0.4-1 0.8-0.5 0.4-1 0.8-0.5 0.4-1 0.7c-0.5 0.3-0.9 0.6-1.3 0.8q-0.4 0.3-0.8 0.5-0.3 0.2-0.7 0.4-0.4 0.2-0.8 0.4-0.3 0.1-0.7 0.3-0.8 0.4-1.6 0.7-0.5 0.2-0.9 0.3-0.4 0.1-0.8 0.3-0.4 0.1-0.8 0.2-0.5 0.1-0.9 0.2l-0.7 0.2-0.4 0.1-6.2 0.5c-0.7 0-1.5-0.2-2.3-0.3h-0.6q-0.1 0-0.2-0.1-0.1 0-0.2 0-0.1 0-0.1 0-0.1 0-0.2 0h-0.3l-0.3-0.1h-0.2q-0.7 0-1.4 0c-5.3 0.1-10.6 1.2-15.6 3.4-4.9 2.1-9.3 5.1-13.1 9-3.7 3.8-6.7 8.4-8.6 13.3-2 5-3 10.3-2.9 15.7v0.3 0.3q0.1 0.5 0.1 0.9c0 0.3 0.1 0.7 0.1 1.1 0.1 0.3 0.1 0.6 0.1 1q0 0.1 0 0.3 0.1 0.1 0.1 0.3 0 0.2 0 0.3 0 0.2 0 0.3v0.2l-0.4 5.9c0 0.1-0.3 0.8-0.3 1q-0.1 0.4-0.2 0.9-0.1 0.4-0.3 0.8-0.1 0.5-0.2 0.9-0.2 0.4-0.3 0.8c-0.2 0.6-0.4 1.1-0.7 1.6-0.4 1-1 2-1.6 3.1-0.2 0.4-0.5 0.9-0.8 1.4q-0.4 0.5-0.8 1-0.3 0.5-0.7 0.9-0.4 0.5-0.8 1-0.5 0.5-0.9 0.9-1.9 1.9-4.2 3.4-2.2 1.6-4.7 2.6-2.6 1.1-5.2 1.6-2.7 0.5-5.4 0.5z"/>
	<path id="Layer" class="s0" d="m114.1 219.6c-5.9 0.1-11.7-1.8-16.5-5.2-4.8-3.5-8.4-8.5-10.1-14.1-1.8-5.7-1.7-11.8 0.3-17.4 2-5.6 5.7-10.4 10.6-13.7q0.6-0.4 1.3-0.8 0.4-0.2 0.8-0.4 0.3-0.2 0.7-0.4 0.4-0.2 0.8-0.4 0.4-0.2 0.7-0.4 0.8-0.3 1.6-0.7 0.4-0.1 0.9-0.3 0.4-0.1 0.8-0.2 0.4-0.1 0.8-0.3 0.4-0.1 0.9-0.2l1.1-0.3 6.2-0.4c0.8 0 1.6 0.1 2.4 0.2l0.4 0.1c0.4 0 0.6 0 0.9 0h0.3 0.2 0.2 1.4c5.4-0.1 10.6-1.2 15.5-3.3 4.9-2.1 9.4-5.2 13.1-9 3.7-3.8 6.7-8.3 8.7-13.3 2-4.9 3-10.2 2.9-15.6v-1.3l-0.1-0.1q0 0 0 0 0-0.1 0-0.1 0 0 0 0 0 0 0 0c0-0.4 0-0.7-0.1-1l-0.1-0.8c0-0.5-0.1-1-0.1-1.5l0.4-6c0-0.2 0.3-0.9 0.3-1.1q0.1-0.5 0.2-0.9 0.1-0.4 0.3-0.8 0.1-0.5 0.2-0.9 0.2-0.4 0.3-0.8c0.2-0.6 0.5-1.1 0.7-1.6q0.2-0.4 0.4-0.8 0.2-0.4 0.4-0.8 0.2-0.3 0.4-0.7 0.2-0.4 0.4-0.7l0.1-0.2q0.1-0.2 0.2-0.3 0-0.1 0.1-0.3 0.1-0.1 0.2-0.2 0.1-0.2 0.2-0.3 0.3-0.5 0.7-1 0.4-0.6 0.8-1.1 0.4-0.4 0.8-0.9 0.4-0.5 0.9-1c5.1-5.3 12.2-8.3 19.6-8.4 7.5-0.1 14.6 2.8 19.9 8.1 5.2 5.2 8.1 12.4 8.1 19.8-0.1 7.4-3.1 14.5-8.5 19.7q-0.4 0.4-0.9 0.8-0.5 0.4-1 0.8-0.5 0.4-1 0.8-0.5 0.4-1 0.7-0.5 0.3-0.9 0.6l-0.5 0.3q-0.4 0.2-0.7 0.4-0.4 0.2-0.7 0.4-0.4 0.2-0.8 0.4-0.3 0.2-0.7 0.3-0.8 0.4-1.6 0.7-0.5 0.2-0.9 0.3-0.4 0.2-0.8 0.3-0.4 0.1-0.9 0.2-0.4 0.1-0.8 0.2-0.4 0.1-0.7 0.2c-0.2 0.1-0.3 0.1-0.5 0.1l-6.1 0.5c-0.9 0-1.9-0.2-2.8-0.3-0.3 0-0.6 0-0.8-0.1h-0.3-0.5-1.4c-5.4 0-10.7 1.2-15.6 3.3-4.9 2.1-9.4 5.2-13.1 9-3.7 3.8-6.7 8.4-8.6 13.3-2 5-3 10.3-2.9 15.7v0.3 0.3c0.1 0.3 0.1 0.6 0.1 1 0.1 0.3 0 0.6 0.1 1 0.1 0.3 0.1 0.6 0.1 0.9q0 0.2 0 0.3 0.1 0.2 0.1 0.4 0 0.2 0 0.3 0 0.2 0 0.4l-0.4 6.1c0 0.1-0.3 1-0.3 1q-0.1 0.4-0.2 0.8-0.1 0.5-0.2 0.9-0.2 0.4-0.3 0.9-0.1 0.4-0.3 0.8-0.3 0.8-0.6 1.5l-0.1 0.2q-0.2 0.4-0.4 0.7-0.2 0.4-0.3 0.8-0.2 0.3-0.4 0.7-0.2 0.4-0.5 0.7-0.4 0.7-0.8 1.4-0.4 0.5-0.7 1-0.4 0.5-0.8 1-0.4 0.5-0.8 1-0.5 0.4-0.9 0.9-1.9 1.9-4.2 3.4-2.2 1.6-4.8 2.6-2.5 1-5.1 1.6-2.7 0.5-5.4 0.5z"/>
	<path id="Layer" class="s0" d="m39.4 145c-5.5 0-10.8-1.6-15.4-4.7-4.5-3-8.1-7.3-10.2-12.4-2.1-5-2.6-10.6-1.6-15.9 1.1-5.4 3.7-10.3 7.6-14.2q0.5-0.5 0.9-0.9 0.5-0.4 1-0.8 0.5-0.4 1-0.8 0.5-0.3 1-0.7c0.5-0.3 0.9-0.6 1.4-0.8q0.4-0.3 0.7-0.5 0.4-0.2 0.8-0.4 0.4-0.2 0.7-0.3 0.4-0.2 0.8-0.4 0.8-0.4 1.6-0.7 0.4-0.2 0.8-0.3 0.5-0.1 0.9-0.3 0.4-0.1 0.8-0.2 0.4-0.1 0.8-0.2l0.7-0.2 0.4-0.1 6.3-0.5c0.8 0 1.7 0.2 2.6 0.3h0.2c0.3 0 0.6 0.1 0.8 0.1h0.3 0.2 0.3 1.4c5.3-0.1 10.6-1.2 15.5-3.3 5-2.2 9.4-5.2 13.1-9.1 3.8-3.8 6.7-8.4 8.7-13.3 2-5 3-10.3 2.9-15.7v-0.3l-0.1-0.3q0-0.1 0-0.2 0-0.1 0-0.3 0-0.1-0.1-0.2 0-0.1 0-0.3 0-0.4 0-0.8l-0.1-0.9c-0.1-0.5-0.2-1-0.2-1.5l0.4-5.8v-0.2-0.1c0-0.1 0.3-0.9 0.3-0.9q0.1-0.4 0.2-0.9 0.1-0.4 0.3-0.8 0.1-0.5 0.2-0.9 0.2-0.4 0.3-0.9c0.2-0.5 0.4-1 0.7-1.6q0.2-0.3 0.4-0.7 0.1-0.4 0.3-0.8 0.2-0.4 0.5-0.7 0.2-0.4 0.4-0.8l0.1-0.1q0.3-0.6 0.7-1.2 0.4-0.5 0.7-1 0.4-0.5 0.8-1 0.4-0.5 0.8-1 0.4-0.4 0.9-0.9c5.2-5.2 12.2-8.1 19.6-8.1 7.3 0 14.3 3 19.5 8.1 5.2 5.2 8.1 12.3 8.1 19.6 0 7.3-2.9 14.4-8.1 19.6q-0.4 0.4-0.9 0.8-0.5 0.4-1 0.8-0.5 0.4-1 0.8-0.5 0.4-1 0.7c-0.4 0.3-0.8 0.5-1.2 0.8l-0.2 0.1q-0.3 0.2-0.7 0.4-0.4 0.2-0.7 0.4-0.4 0.2-0.8 0.4-0.4 0.2-0.8 0.4-0.8 0.3-1.6 0.6-0.4 0.2-0.8 0.3-0.4 0.2-0.8 0.3-0.5 0.1-0.9 0.2-0.4 0.1-0.8 0.2l-0.8 0.2c-0.1 0-0.3 0.1-0.4 0.2l-6.2 0.4c-0.7 0-1.6-0.2-2.4-0.3h-0.4-0.8-0.3-0.2-0.3-1.4c-5.3 0-10.6 1.2-15.5 3.3-4.9 2.1-9.4 5.2-13.1 9-3.8 3.9-6.7 8.4-8.7 13.4-2 4.9-2.9 10.3-2.9 15.6v0.2l0.1 0.3q0 0.1 0 0.2 0 0.2 0.1 0.3 0 0.1 0 0.2 0 0.2 0 0.3c0 0.3 0 0.6 0.1 1l0.1 0.9q0 0.2 0 0.4 0 0.1 0 0.3 0.1 0.2 0.1 0.3 0 0.2 0 0.4l-0.5 6c0 0.1 0 0.3-0.1 0.5l-0.1 0.5q-0.1 0.5-0.2 0.9-0.2 0.4-0.3 0.9-0.1 0.4-0.2 0.8-0.2 0.5-0.3 0.9c-0.2 0.5-0.5 1-0.7 1.6q-0.2 0.4-0.4 0.8-0.2 0.3-0.4 0.7-0.2 0.4-0.4 0.8-0.2 0.3-0.4 0.7-0.4 0.7-0.8 1.3-0.4 0.6-0.8 1.1-0.3 0.5-0.7 1-0.4 0.5-0.9 0.9-0.4 0.5-0.8 1-1.9 1.9-4.2 3.4-2.3 1.5-4.8 2.5-2.5 1.1-5.1 1.6-2.7 0.5-5.4 0.5z"/>
</svg>